<svg xmlns="http://www.w3.org/2000/svg" width="1000" height="1026.574" viewBox="0 0 1000 1026.574">
  <g id="Group_87" data-name="Group 87" transform="translate(-4080.25 -2026.95)">
    <g id="Group_81" data-name="Group 81">
      <g id="Group_52" data-name="Group 52">
        <g id="Group_47" data-name="Group 47" opacity="0.2">
          <g id="Group_44" data-name="Group 44">
            <rect id="Rectangle_6" data-name="Rectangle 6" width="1" height="6" transform="translate(4437.5 3034.474)" fill="#fff"/>
          </g>
          <g id="Group_45" data-name="Group 45">
            <path id="Path_41" data-name="Path 41" d="M4438.5,3022.569h-1v-11.9h1Zm0-23.807h-1v-11.9h1Zm0-23.807h-1v-11.9h1Zm0-23.808h-1v-11.9h1Zm0-23.806h-1v-11.9h1Zm0-23.808h-1v-11.9h1Zm0-23.807h-1v-11.9h1Zm0-23.807h-1v-11.9h1Zm0-23.808h-1v-11.9h1Zm0-23.806h-1V2796.4h1Zm0-23.808h-1v-11.9h1Zm0-23.808h-1v-11.9h1Zm0-23.806h-1v-11.9h1Zm0-23.808h-1v-11.9h1Zm0-23.806h-1v-11.905h1Zm0-23.808h-1v-11.9h1Zm0-23.808h-1v-11.9h1Zm0-23.806h-1v-11.905h1Zm0-23.808h-1v-11.9h1Zm0-23.808h-1v-11.9h1Zm0-23.806h-1v-11.9h1Zm0-23.808h-1v-11.9h1Zm0-23.806h-1v-11.905h1Zm0-23.808h-1v-11.9h1Zm0-23.807h-1v-11.9h1Zm0-23.807h-1v-11.9h1Zm0-23.807h-1v-11.9h1Zm0-23.808h-1v-11.9h1Zm0-23.807h-1v-11.9h1Zm0-23.807h-1v-11.9h1Zm0-23.807h-1v-11.9h1Zm0-23.807h-1v-11.9h1Zm0-23.808h-1v-11.9h1Zm0-23.806h-1v-11.9h1Zm0-23.808h-1v-11.9h1Zm0-23.807h-1v-11.9h1Zm0-23.807h-1v-11.9h1Zm0-23.808h-1v-11.9h1Zm0-23.806h-1v-11.9h1Zm0-23.808h-1v-11.9h1Zm0-23.807h-1v-11.9h1Z" fill="#fff"/>
          </g>
          <g id="Group_46" data-name="Group 46">
            <rect id="Rectangle_7" data-name="Rectangle 7" width="1" height="6" transform="translate(4437.5 2040.474)" fill="#fff"/>
          </g>
        </g>
        <g id="Group_51" data-name="Group 51" opacity="0.2">
          <g id="Group_48" data-name="Group 48">
            <rect id="Rectangle_8" data-name="Rectangle 8" width="1" height="6" transform="translate(4474 3034.474)" fill="#fff"/>
          </g>
          <g id="Group_49" data-name="Group 49">
            <path id="Path_42" data-name="Path 42" d="M4475,3022.569h-1v-11.9h1Zm0-23.807h-1v-11.9h1Zm0-23.807h-1v-11.9h1Zm0-23.808h-1v-11.9h1Zm0-23.806h-1v-11.9h1Zm0-23.808h-1v-11.9h1Zm0-23.807h-1v-11.9h1Zm0-23.807h-1v-11.9h1Zm0-23.808h-1v-11.9h1Zm0-23.806h-1V2796.4h1Zm0-23.808h-1v-11.9h1Zm0-23.808h-1v-11.9h1Zm0-23.806h-1v-11.9h1Zm0-23.808h-1v-11.9h1Zm0-23.806h-1v-11.905h1Zm0-23.808h-1v-11.9h1Zm0-23.808h-1v-11.9h1Zm0-23.806h-1v-11.905h1Zm0-23.808h-1v-11.9h1Zm0-23.808h-1v-11.9h1Zm0-23.806h-1v-11.9h1Zm0-23.808h-1v-11.9h1Zm0-23.806h-1v-11.905h1Zm0-23.808h-1v-11.9h1Zm0-23.807h-1v-11.9h1Zm0-23.807h-1v-11.9h1Zm0-23.807h-1v-11.9h1Zm0-23.808h-1v-11.9h1Zm0-23.807h-1v-11.9h1Zm0-23.807h-1v-11.9h1Zm0-23.807h-1v-11.9h1Zm0-23.807h-1v-11.9h1Zm0-23.808h-1v-11.9h1Zm0-23.806h-1v-11.9h1Zm0-23.808h-1v-11.9h1Zm0-23.807h-1v-11.9h1Zm0-23.807h-1v-11.9h1Zm0-23.808h-1v-11.9h1Zm0-23.806h-1v-11.9h1Zm0-23.808h-1v-11.9h1Zm0-23.807h-1v-11.9h1Z" fill="#fff"/>
          </g>
          <g id="Group_50" data-name="Group 50">
            <rect id="Rectangle_9" data-name="Rectangle 9" width="1" height="6" transform="translate(4474 2040.474)" fill="#fff"/>
          </g>
        </g>
      </g>
      <g id="Group_61" data-name="Group 61">
        <g id="Group_56" data-name="Group 56" opacity="0.2">
          <g id="Group_53" data-name="Group 53">
            <rect id="Rectangle_10" data-name="Rectangle 10" width="6" height="1" transform="translate(5074.25 2751)" fill="#fff"/>
          </g>
          <g id="Group_54" data-name="Group 54">
            <path id="Path_43" data-name="Path 43" d="M5062.347,2752h-11.9v-1h11.9Zm-23.808,0h-11.9v-1h11.9Zm-23.807,0h-11.9v-1h11.9Zm-23.807,0h-11.9v-1h11.9Zm-23.807,0h-11.9v-1h11.9Zm-23.807,0h-11.9v-1h11.9Zm-23.808,0h-11.9v-1h11.9Zm-23.807,0h-11.9v-1h11.9Zm-23.807,0h-11.9v-1h11.9Zm-23.807,0h-11.9v-1h11.9Zm-23.808,0h-11.9v-1h11.9Zm-23.807,0h-11.9v-1h11.9Zm-23.807,0h-11.9v-1h11.9Zm-23.807,0h-11.9v-1h11.9Zm-23.807,0h-11.9v-1h11.9Zm-23.808,0h-11.9v-1h11.9Zm-23.807,0h-11.9v-1h11.9Zm-23.807,0h-11.9v-1h11.9Zm-23.808,0h-11.9v-1h11.9Zm-23.807,0h-11.9v-1h11.9Zm-23.807,0h-11.9v-1h11.9Zm-23.807,0h-11.9v-1h11.9Zm-23.807,0h-11.9v-1h11.9Zm-23.808,0h-11.9v-1h11.9Zm-23.806,0h-11.905v-1h11.905Zm-23.808,0h-11.9v-1h11.9Zm-23.807,0h-11.9v-1h11.9Zm-23.807,0h-11.9v-1h11.9Zm-23.808,0h-11.9v-1h11.9Zm-23.806,0h-11.9v-1h11.9Zm-23.808,0h-11.9v-1h11.9Zm-23.807,0h-11.9v-1h11.9Zm-23.807,0h-11.9v-1h11.9Zm-23.807,0h-11.9v-1h11.9Zm-23.808,0H4241v-1h11.9Zm-23.806,0H4217.19v-1H4229.1Zm-23.808,0h-11.9v-1h11.9Zm-23.808,0h-11.9v-1h11.9Zm-23.806,0h-11.9v-1h11.9Zm-23.808,0h-11.9v-1h11.9Zm-23.806,0h-11.905v-1h11.905Z" fill="#fff"/>
          </g>
          <g id="Group_55" data-name="Group 55">
            <rect id="Rectangle_11" data-name="Rectangle 11" width="6" height="1" transform="translate(4080.25 2751)" fill="#fff"/>
          </g>
        </g>
        <g id="Group_60" data-name="Group 60" opacity="0.2">
          <g id="Group_57" data-name="Group 57">
            <rect id="Rectangle_12" data-name="Rectangle 12" width="6" height="1" transform="translate(5074.25 2714.5)" fill="#fff"/>
          </g>
          <g id="Group_58" data-name="Group 58">
            <path id="Path_44" data-name="Path 44" d="M5062.347,2715.5h-11.9v-1h11.9Zm-23.808,0h-11.9v-1h11.9Zm-23.807,0h-11.9v-1h11.9Zm-23.807,0h-11.9v-1h11.9Zm-23.807,0h-11.9v-1h11.9Zm-23.807,0h-11.9v-1h11.9Zm-23.808,0h-11.9v-1h11.9Zm-23.807,0h-11.9v-1h11.9Zm-23.807,0h-11.9v-1h11.9Zm-23.807,0h-11.9v-1h11.9Zm-23.808,0h-11.9v-1h11.9Zm-23.807,0h-11.9v-1h11.9Zm-23.807,0h-11.9v-1h11.9Zm-23.807,0h-11.9v-1h11.9Zm-23.807,0h-11.9v-1h11.9Zm-23.808,0h-11.9v-1h11.9Zm-23.807,0h-11.9v-1h11.9Zm-23.807,0h-11.9v-1h11.9Zm-23.808,0h-11.9v-1h11.9Zm-23.807,0h-11.9v-1h11.9Zm-23.807,0h-11.9v-1h11.9Zm-23.807,0h-11.9v-1h11.9Zm-23.807,0h-11.9v-1h11.9Zm-23.808,0h-11.9v-1h11.9Zm-23.806,0h-11.905v-1h11.905Zm-23.808,0h-11.9v-1h11.9Zm-23.807,0h-11.9v-1h11.9Zm-23.807,0h-11.9v-1h11.9Zm-23.808,0h-11.9v-1h11.9Zm-23.806,0h-11.9v-1h11.9Zm-23.808,0h-11.9v-1h11.9Zm-23.807,0h-11.9v-1h11.9Zm-23.807,0h-11.9v-1h11.9Zm-23.807,0h-11.9v-1h11.9Zm-23.808,0H4241v-1h11.9Zm-23.806,0H4217.19v-1H4229.1Zm-23.808,0h-11.9v-1h11.9Zm-23.808,0h-11.9v-1h11.9Zm-23.806,0h-11.9v-1h11.9Zm-23.808,0h-11.9v-1h11.9Zm-23.806,0h-11.905v-1h11.905Z" fill="#fff"/>
          </g>
          <g id="Group_59" data-name="Group 59">
            <rect id="Rectangle_13" data-name="Rectangle 13" width="6" height="1" transform="translate(4080.25 2714.5)" fill="#fff"/>
          </g>
        </g>
      </g>
      <g id="Group_70" data-name="Group 70">
        <g id="Group_65" data-name="Group 65" opacity="0.2">
          <g id="Group_62" data-name="Group 62">
            <rect id="Rectangle_14" data-name="Rectangle 14" width="6" height="1" transform="translate(5074.25 2364.5)" fill="#fff"/>
          </g>
          <g id="Group_63" data-name="Group 63">
            <path id="Path_45" data-name="Path 45" d="M5062.347,2365.5h-11.9v-1h11.9Zm-23.808,0h-11.9v-1h11.9Zm-23.807,0h-11.9v-1h11.9Zm-23.807,0h-11.9v-1h11.9Zm-23.807,0h-11.9v-1h11.9Zm-23.807,0h-11.9v-1h11.9Zm-23.808,0h-11.9v-1h11.9Zm-23.807,0h-11.9v-1h11.9Zm-23.807,0h-11.9v-1h11.9Zm-23.807,0h-11.9v-1h11.9Zm-23.808,0h-11.9v-1h11.9Zm-23.807,0h-11.9v-1h11.9Zm-23.807,0h-11.9v-1h11.9Zm-23.807,0h-11.9v-1h11.9Zm-23.807,0h-11.9v-1h11.9Zm-23.808,0h-11.9v-1h11.9Zm-23.807,0h-11.9v-1h11.9Zm-23.807,0h-11.9v-1h11.9Zm-23.808,0h-11.9v-1h11.9Zm-23.807,0h-11.9v-1h11.9Zm-23.807,0h-11.9v-1h11.9Zm-23.807,0h-11.9v-1h11.9Zm-23.807,0h-11.9v-1h11.9Zm-23.808,0h-11.9v-1h11.9Zm-23.806,0h-11.905v-1h11.905Zm-23.808,0h-11.9v-1h11.9Zm-23.807,0h-11.9v-1h11.9Zm-23.807,0h-11.9v-1h11.9Zm-23.808,0h-11.9v-1h11.9Zm-23.806,0h-11.9v-1h11.9Zm-23.808,0h-11.9v-1h11.9Zm-23.807,0h-11.9v-1h11.9Zm-23.807,0h-11.9v-1h11.9Zm-23.807,0h-11.9v-1h11.9Zm-23.808,0H4241v-1h11.9Zm-23.806,0H4217.19v-1H4229.1Zm-23.808,0h-11.9v-1h11.9Zm-23.808,0h-11.9v-1h11.9Zm-23.806,0h-11.9v-1h11.9Zm-23.808,0h-11.9v-1h11.9Zm-23.806,0h-11.905v-1h11.905Z" fill="#fff"/>
          </g>
          <g id="Group_64" data-name="Group 64">
            <rect id="Rectangle_15" data-name="Rectangle 15" width="6" height="1" transform="translate(4080.25 2364.5)" fill="#fff"/>
          </g>
        </g>
        <g id="Group_69" data-name="Group 69" opacity="0.2">
          <g id="Group_66" data-name="Group 66">
            <rect id="Rectangle_16" data-name="Rectangle 16" width="6" height="1" transform="translate(5074.25 2328)" fill="#fff"/>
          </g>
          <g id="Group_67" data-name="Group 67">
            <path id="Path_46" data-name="Path 46" d="M5062.347,2329h-11.9v-1h11.9Zm-23.808,0h-11.9v-1h11.9Zm-23.807,0h-11.9v-1h11.9Zm-23.807,0h-11.9v-1h11.9Zm-23.807,0h-11.9v-1h11.9Zm-23.807,0h-11.9v-1h11.9Zm-23.808,0h-11.9v-1h11.9Zm-23.807,0h-11.9v-1h11.9Zm-23.807,0h-11.9v-1h11.9Zm-23.807,0h-11.9v-1h11.9Zm-23.808,0h-11.9v-1h11.9Zm-23.807,0h-11.9v-1h11.9Zm-23.807,0h-11.9v-1h11.9Zm-23.807,0h-11.9v-1h11.9Zm-23.807,0h-11.9v-1h11.9Zm-23.808,0h-11.9v-1h11.9Zm-23.807,0h-11.9v-1h11.9Zm-23.807,0h-11.9v-1h11.9Zm-23.808,0h-11.9v-1h11.9Zm-23.807,0h-11.9v-1h11.9Zm-23.807,0h-11.9v-1h11.9Zm-23.807,0h-11.9v-1h11.9Zm-23.807,0h-11.9v-1h11.9Zm-23.808,0h-11.9v-1h11.9Zm-23.806,0h-11.905v-1h11.905Zm-23.808,0h-11.9v-1h11.9Zm-23.807,0h-11.9v-1h11.9Zm-23.807,0h-11.9v-1h11.9Zm-23.808,0h-11.9v-1h11.9Zm-23.806,0h-11.9v-1h11.9Zm-23.808,0h-11.9v-1h11.9Zm-23.807,0h-11.9v-1h11.9Zm-23.807,0h-11.9v-1h11.9Zm-23.807,0h-11.9v-1h11.9Zm-23.808,0H4241v-1h11.9Zm-23.806,0H4217.19v-1H4229.1Zm-23.808,0h-11.9v-1h11.9Zm-23.808,0h-11.9v-1h11.9Zm-23.806,0h-11.9v-1h11.9Zm-23.808,0h-11.9v-1h11.9Zm-23.806,0h-11.905v-1h11.905Z" fill="#fff"/>
          </g>
          <g id="Group_68" data-name="Group 68">
            <rect id="Rectangle_17" data-name="Rectangle 17" width="6" height="1" transform="translate(4080.25 2328)" fill="#fff"/>
          </g>
        </g>
      </g>
      <g id="Group_75" data-name="Group 75">
        <g id="Group_72" data-name="Group 72" opacity="0.2">
          <g id="Group_71" data-name="Group 71">
            <path id="Path_47" data-name="Path 47" d="M4567.355,2723.5h-.1c-3.933,0-7.912-.117-11.829-.349l.058-1c3.9.23,7.858.347,11.771.347h.1Zm11.938-.36-.061-1c3.935-.237,7.915-.6,11.833-1.068l.12.992C4587.247,2722.541,4583.246,2722.9,4579.293,2723.14Zm-35.766-1.048c-3.933-.47-7.906-1.068-11.807-1.775l.177-.984c3.882.7,7.835,1.3,11.749,1.767Zm59.465-1.813-.179-.984c3.89-.71,7.8-1.548,11.618-2.487l.238.97C4610.831,2718.724,4606.9,2719.564,4602.992,2720.279Zm-82.954-2.45c-3.854-.943-7.726-2.017-11.507-3.192l.3-.955c3.761,1.169,7.612,2.237,11.448,3.176Zm106.134-3.256-.3-.955c3.762-1.172,7.54-2.477,11.23-3.88l.356.936C4633.751,2712.083,4629.953,2713.4,4626.172,2714.573Zm-128.953-3.831c-3.712-1.406-7.43-2.945-11.052-4.575l.41-.912c3.6,1.621,7.3,3.153,10.995,4.552Zm151.254-4.638-.412-.912c3.595-1.622,7.183-3.373,10.665-5.2l.464.885C4655.692,2702.714,4652.086,2704.474,4648.473,2706.1Zm-173.056-5.175c-3.518-1.848-7.021-3.825-10.41-5.877l.517-.856c3.373,2.042,6.858,4.009,10.358,5.848ZM4669.575,2695l-.517-.856c3.363-2.037,6.716-4.208,9.964-6.456l.569.823C4676.326,2690.771,4672.957,2692.954,4669.575,2695Zm-214.6-6.443c-3.256-2.249-6.494-4.633-9.622-7.085l.617-.787c3.112,2.439,6.334,4.811,9.573,7.049Zm234.225-7.127-.617-.787c3.1-2.436,6.175-5,9.122-7.61l.664.748C4695.406,2676.41,4692.321,2678.983,4689.2,2681.432Zm-253.024-7.609c-2.967-2.629-5.894-5.383-8.7-8.185l.707-.707c2.791,2.788,5.7,5.528,8.656,8.144Zm270.887-8.225-.708-.707c2.789-2.787,5.531-5.7,8.15-8.652l.748.664C4712.62,2659.872,4709.864,2662.8,4707.063,2665.6Zm-287.777-8.65c-2.628-2.963-5.2-6.046-7.653-9.165l.787-.617c2.437,3.1,5,6.171,7.614,9.118Zm303.621-9.218-.787-.617c2.44-3.109,4.814-6.329,7.056-9.569l.822.568C4727.745,2641.369,4725.359,2644.6,4722.907,2647.73Zm-318.36-9.553c-2.254-3.256-4.439-6.625-6.494-10.012l.855-.519c2.044,3.371,4.218,6.722,6.461,9.962Zm331.95-10.094-.855-.518c2.044-3.372,4.012-6.855,5.853-10.354l.885.465C4740.53,2621.193,4738.551,2624.694,4736.5,2628.083Zm-344.321-10.3c-1.843-3.5-3.6-7.1-5.238-10.716l.913-.412c1.624,3.595,3.377,7.182,5.21,10.661Zm355.447-10.854-.912-.41c1.623-3.6,3.157-7.3,4.558-10.994l.935.356C4750.8,2599.591,4749.254,2603.309,4747.623,2606.929Zm-365.258-10.87c-1.41-3.705-2.724-7.5-3.906-11.286l.955-.3c1.176,3.765,2.482,7.543,3.886,11.228Zm373.74-11.491-.955-.3c1.17-3.758,2.242-7.61,3.183-11.447l.971.239C4758.357,2576.919,4757.281,2580.79,4756.1,2584.568Zm-380.858-11.3c-.951-3.853-1.794-7.782-2.507-11.675l.985-.18c.708,3.874,1.546,7.782,2.493,11.615Zm386.552-11.886-.985-.18c.707-3.884,1.3-7.836,1.773-11.747l.992.119C4763.107,2553.508,4762.509,2557.48,4761.8,2561.385Zm-390.852-11.594c-.476-3.937-.84-7.938-1.079-11.892l1-.06c.238,3.933.6,7.914,1.073,11.831Zm393.7-12.106-1-.059c.235-3.933.353-7.928.353-11.876v-.42h1v.416C4765,2529.718,4764.881,2533.733,4764.646,2537.685ZM4370.5,2525.96h-1v-.217c0-3.9.115-7.845.342-11.718l1,.059c-.226,3.854-.34,7.778-.34,11.666Zm393.123-12.507c-.242-3.938-.607-7.919-1.086-11.829l.992-.121c.482,3.93.849,7.93,1.092,11.89Zm-391.733-11.2-.993-.117c.469-3.944,1.064-7.917,1.768-11.81l.984.178C4372.948,2494.373,4372.355,2498.326,4371.889,2502.249Zm388.849-12.369c-.714-3.878-1.557-7.785-2.506-11.613l.971-.241c.953,3.847,1.8,7.775,2.52,11.672Zm-384.622-11-.97-.238c.941-3.853,2.012-7.725,3.185-11.509l.955.3C4378.119,2471.193,4377.053,2475.045,4376.116,2478.879Zm378.907-12.053c-1.177-3.761-2.489-7.537-3.9-11.223l.934-.358c1.415,3.706,2.732,7.5,3.918,11.282Zm-371.866-10.656-.935-.354c1.4-3.714,2.942-7.433,4.569-11.053l.912.41C4386.085,2448.774,4384.555,2452.475,4383.157,2456.17Zm363.406-11.516c-1.625-3.588-3.381-7.173-5.221-10.655l.885-.467c1.848,3.5,3.614,7.1,5.247,10.71Zm-353.656-10.179-.885-.465c1.839-3.507,3.815-7.01,5.872-10.413l.855.517C4396.7,2427.5,4394.737,2430.985,4392.907,2434.475Zm342.577-10.8c-2.048-3.368-4.226-6.717-6.472-9.954l.822-.571c2.257,3.254,4.445,6.621,6.5,10.005Zm-330.279-9.546-.822-.568c2.253-3.266,4.636-6.505,7.08-9.626l.787.617C4409.818,2407.656,4407.448,2410.878,4405.205,2414.128Zm316.746-9.956c-2.438-3.1-5-6.164-7.624-9.111l.748-.665c2.633,2.962,5.211,6.043,7.661,9.157Zm-302.1-8.756-.748-.662c2.627-2.97,5.379-5.9,8.181-8.7l.707.707C4425.209,2389.549,4422.471,2392.462,4419.856,2395.416Zm286.312-8.993c-2.793-2.786-5.708-5.524-8.663-8.135l.662-.75c2.97,2.626,5.9,5.376,8.708,8.176Zm-269.53-7.819-.664-.748c2.968-2.637,6.05-5.213,9.161-7.658l.617.787C4442.658,2373.417,4439.592,2375.98,4436.638,2378.6Zm251.729-7.918c-3.106-2.429-6.33-4.8-9.582-7.04l.569-.824c3.267,2.254,6.506,4.634,9.628,7.076Zm-233.061-6.757-.571-.823c3.257-2.256,6.624-4.443,10.009-6.5l.52.856C4461.9,2359.508,4458.546,2361.683,4455.306,2363.929Zm213.489-6.734c-3.382-2.042-6.869-4.005-10.363-5.836l.464-.885c3.512,1.839,7.016,3.813,10.417,5.866Zm-193.2-5.585-.467-.884c3.5-1.845,7.1-3.609,10.713-5.243l.412.911C4482.655,2348.021,4479.069,2349.775,4475.591,2351.61Zm172.139-5.45c-3.594-1.614-7.295-3.142-11-4.541l.354-.935c3.722,1.405,7.441,2.941,11.056,4.564Zm-150.531-4.324-.355-.934c3.7-1.412,7.5-2.728,11.283-3.912l.3.955C4504.662,2339.122,4500.885,2340.432,4497.2,2341.836Zm128.273-4.08c-3.768-1.165-7.62-2.23-11.451-3.164l.236-.971c3.851.939,7.723,2.009,11.51,3.18Zm-105.6-3.014-.24-.971c3.852-.952,7.78-1.8,11.675-2.512l.179.984C4527.608,2332.953,4523.7,2333.795,4519.868,2334.742Zm82.528-2.612c-3.874-.7-7.828-1.289-11.75-1.754l.118-.992c3.942.467,7.916,1.059,11.81,1.762Zm-59.168-1.679-.122-.992c3.931-.48,7.931-.845,11.891-1.086l.061,1C4551.118,2329.611,4547.138,2329.975,4543.228,2330.451Zm35.584-1.117c-3.82-.222-7.709-.334-11.562-.334h-.314v-1h.314c3.871,0,7.781.113,11.62.336Z" fill="#fff"/>
          </g>
        </g>
        <g id="Group_74" data-name="Group 74" opacity="0.2">
          <g id="Group_73" data-name="Group 73">
            <path id="Path_48" data-name="Path 48" d="M4567.336,2687.5v-1c4,0,8.047-.154,12.011-.449l.074,1C4575.433,2687.347,4571.366,2687.5,4567.336,2687.5Zm-12.082-.44c-4.013-.295-8.056-.743-12.018-1.333l.147-.989c3.937.586,7.956,1.031,11.943,1.323Zm36.184-1.36-.149-.988c3.948-.591,7.921-1.34,11.809-2.226l.222.975C4599.408,2684.354,4595.41,2685.107,4591.438,2685.7Zm-60.087-2.2c-3.913-.886-7.844-1.934-11.685-3.114l.293-.955c3.817,1.171,7.725,2.213,11.612,3.094Zm83.65-3.166-.295-.955c3.807-1.175,7.623-2.512,11.342-3.973l.365.931C4622.672,2677.81,4618.832,2679.154,4615,2680.336Zm-106.765-3.939c-3.735-1.463-7.467-3.092-11.094-4.839l.433-.9c3.6,1.737,7.315,3.355,11.027,4.809Zm129.248-4.9-.435-.9c3.585-1.731,7.155-3.622,10.613-5.623l.5.865C4644.684,2667.853,4641.091,2669.757,4637.484,2671.5Zm-151.041-5.6c-3.479-2.009-6.925-4.177-10.244-6.441l.565-.826c3.3,2.25,6.722,4.4,10.179,6.4Zm171.948-6.5-.565-.826c3.295-2.251,6.546-4.654,9.662-7.144l.625.781C4664.977,2654.714,4661.706,2657.132,4658.391,2659.4Zm-191.922-7.125c-3.135-2.5-6.22-5.153-9.169-7.888l.679-.733c2.932,2.717,6,5.356,9.113,7.84Zm210.8-7.957-.679-.732c2.926-2.718,5.785-5.577,8.5-8.5l.732.68C4683.1,2638.7,4680.219,2641.581,4677.274,2644.315Zm-228.533-8.478c-2.733-2.942-5.39-6.024-7.9-9.157l.781-.625c2.49,3.115,5.131,6.177,7.848,9.1Zm244.979-9.238-.782-.623c2.491-3.12,4.894-6.372,7.146-9.669l.826.564C4698.645,2620.188,4696.226,2623.461,4693.72,2626.6Zm-260.069-9.637c-2.266-3.315-4.435-6.755-6.448-10.226l.865-.5c2,3.45,4.157,6.87,6.41,10.163Zm273.7-10.33-.865-.5c2-3.457,3.894-7.033,5.629-10.629l.9.434C4711.273,2599.556,4709.368,2603.154,4707.355,2606.632Zm-285.815-10.57c-1.745-3.609-3.376-7.333-4.847-11.068l.93-.367c1.463,3.713,3.083,7.413,4.817,11Zm296.324-11.218-.931-.365c1.459-3.714,2.8-7.535,3.973-11.358l.955.295C4720.677,2577.263,4719.332,2581.107,4717.864,2584.844Zm-305.175-11.261c-1.184-3.832-2.239-7.762-3.133-11.68l.974-.222c.89,3.894,1.938,7.8,3.115,11.607Zm312.294-11.851-.974-.22c.882-3.887,1.629-7.861,2.22-11.811l.988.149C4726.623,2553.823,4725.872,2557.821,4724.983,2561.732Zm-317.673-11.711c-.6-3.969-1.052-8.011-1.352-12.014l1-.074c.3,3.977.749,7.995,1.342,11.94Zm321.246-12.188-1-.074c.294-3.969.442-8.009.442-12.009v-.343h1v.343C4729,2529.774,4728.851,2533.84,4728.556,2537.833ZM4406.5,2525.922h-1v-.172c0-3.962.146-7.969.432-11.91l1,.072c-.285,3.917-.43,7.9-.43,11.838Zm321.031-12.524c-.3-3.982-.757-8-1.354-11.939l.988-.15c.6,3.964,1.061,8.006,1.364,12.013Zm-319.285-11.43-.988-.147c.588-3.97,1.335-7.97,2.221-11.886l.974.22C4409.574,2494.047,4408.831,2498.021,4408.246,2501.968Zm315.686-12.316c-.89-3.881-1.942-7.785-3.126-11.6l.955-.3c1.192,3.842,2.25,7.77,3.145,11.677Zm-310.388-11.11-.956-.293c1.178-3.842,2.518-7.688,3.984-11.434l.932.366C4416.047,2470.9,4414.714,2474.725,4413.544,2478.542Zm303.27-11.827c-1.465-3.709-3.089-7.407-4.829-10.994l.9-.436c1.749,3.609,3.384,7.33,4.858,11.063Zm-294.508-10.563-.9-.433c1.741-3.619,3.643-7.22,5.653-10.7l.865.5C4425.926,2448.978,4424.036,2452.556,4422.306,2456.152Zm284.04-11.035c-2-3.447-4.163-6.864-6.419-10.154l.824-.567c2.27,3.312,4.443,6.75,6.46,10.219Zm-272.027-9.783-.826-.563c2.258-3.313,4.674-6.588,7.18-9.736l.783.623C4438.964,2428.786,4436.563,2432.042,4434.319,2435.334Zm258.449-10.021c-2.5-3.115-5.14-6.174-7.859-9.093l.733-.682c2.735,2.938,5.4,6.016,7.907,9.15Zm-243.476-8.772-.734-.68c2.727-2.943,5.6-5.823,8.543-8.561l.681.732C4454.858,2410.753,4452,2413.616,4449.292,2416.541Zm227.1-8.808c-2.93-2.711-6-5.345-9.122-7.83l.623-.783c3.142,2.5,6.229,5.151,9.178,7.879Zm-209.517-7.553-.625-.782c3.136-2.509,6.4-4.931,9.715-7.2l.564.824C4473.244,2395.278,4470,2397.686,4466.879,2400.18Zm190.717-7.409c-3.3-2.246-6.727-4.4-10.188-6.39l.5-.867c3.482,2.007,6.931,4.171,10.25,6.431Zm-170.905-6.16-.5-.865c3.464-2.01,7.054-3.918,10.673-5.671l.436.9C4493.7,2382.718,4490.134,2384.614,4486.691,2386.611Zm150.079-5.841c-3.6-1.733-7.316-3.347-11.031-4.8l.364-.932c3.738,1.461,7.472,3.085,11.1,4.828Zm-128.476-4.616-.367-.929c3.739-1.476,7.578-2.826,11.409-4.011l.295.955C4515.824,2373.348,4512.01,2374.688,4508.294,2376.154Zm106.082-4.134c-3.818-1.169-7.726-2.207-11.615-3.084l.22-.975c3.914.882,7.846,1.926,11.688,3.1Zm-83.14-2.971-.222-.975c3.915-.9,7.912-1.654,11.88-2.253l.148.989C4539.1,2367.405,4535.128,2368.158,4531.236,2369.049Zm59.71-2.315c-3.941-.581-7.96-1.022-11.944-1.31l.072-1c4.009.29,8.053.734,12.019,1.319Zm-35.964-1.272-.074-1c4-.3,8.063-.457,12.084-.464l0,1C4563,2365.007,4558.956,2365.162,4554.982,2365.462Z" fill="#fff"/>
          </g>
        </g>
      </g>
      <g id="Group_80" data-name="Group 80">
        <g id="Group_77" data-name="Group 77" opacity="0.2">
          <g id="Group_76" data-name="Group 76">
            <path id="Path_49" data-name="Path 49" d="M5075.736,3010.621l-8.548-8.548.708-.707,8.547,8.548Zm-17.094-17.1-8.548-8.546.707-.708,8.548,8.547Zm-17.1-17.094-8.547-8.548.707-.707,8.547,8.548Zm-17.095-17.095-8.548-8.548.707-.707,8.548,8.548Zm-17.1-17.095-8.547-8.548.707-.707,8.547,8.548Zm-17.095-17.095-8.547-8.547.707-.707,8.547,8.546Zm-17.1-17.095-8.548-8.548.707-.707,8.548,8.548Zm-17.1-17.095-8.548-8.548.707-.707,8.548,8.548Zm-17.094-17.1-8.548-8.547.707-.707,8.548,8.547Zm-17.1-17.094-8.547-8.548.707-.707,8.547,8.548Zm-17.095-17.1-8.548-8.548.707-.707,8.548,8.548Zm-17.1-17.1-8.547-8.547.707-.707,8.547,8.547ZM4870.6,2805.48l-8.547-8.547.707-.707,8.547,8.547Zm-17.1-17.094-8.548-8.548.707-.707,8.548,8.548Zm-17.1-17.1-8.548-8.547.707-.707,8.548,8.547Zm-17.095-17.095-8.547-8.547.707-.707,8.547,8.547Zm-17.1-17.094-8.548-8.548.707-.707,8.548,8.548Zm-17.095-17.095-8.548-8.548.707-.707,8.548,8.548Zm-17.1-17.1-8.547-8.547.707-.707,8.547,8.547Zm-17.095-17.095-8.547-8.547.707-.707,8.547,8.547Zm-17.1-17.094-8.548-8.548.707-.707,8.548,8.548Zm-17.095-17.1-8.548-8.547.707-.707,8.548,8.547Zm-17.1-17.095-8.547-8.548.707-.707,8.547,8.548Zm-17.1-17.094-8.548-8.548.707-.707,8.548,8.548Zm-17.095-17.1-8.548-8.547.707-.707,8.548,8.547Zm-17.1-17.095-8.548-8.548.708-.707,8.547,8.548Zm-17.095-17.1-8.547-8.547.707-.707,8.547,8.547Zm-17.1-17.095-8.548-8.547.707-.707,8.548,8.547Zm-17.095-17.095-8.548-8.548.707-.707,8.548,8.548Zm-17.1-17.095-8.546-8.548.707-.707,8.547,8.548Zm-17.094-17.095-8.548-8.547.707-.707,8.548,8.547Zm-17.1-17.095-8.548-8.547.707-.707,8.548,8.547Zm-17.1-17.095-8.547-8.548.707-.707,8.547,8.548Zm-17.094-17.095-8.548-8.547.707-.708,8.548,8.548Zm-17.1-17.1-8.548-8.547.707-.707,8.548,8.547Zm-17.095-17.095-8.548-8.548.707-.707,8.548,8.548Zm-17.1-17.095-8.546-8.548.707-.707,8.546,8.548Zm-17.094-17.1-8.548-8.546.707-.707,8.548,8.546Zm-17.1-17.094-8.548-8.548.707-.707,8.548,8.548Zm-17.1-17.095-8.547-8.548.707-.707,8.547,8.548Zm-17.094-17.1-8.548-8.547.707-.707,8.548,8.547Zm-17.1-17.094-8.548-8.548.707-.707,8.548,8.548Zm-17.095-17.1-8.548-8.548.707-.707,8.548,8.548Zm-17.1-17.095-8.546-8.548.707-.707,8.546,8.548Zm-17.094-17.1-8.548-8.546.707-.707,8.548,8.546Zm-17.1-17.094-8.548-8.548.707-.707,8.548,8.548Zm-17.1-17.095-8.547-8.548.707-.707,8.547,8.548Zm-17.094-17.1-8.548-8.547.707-.707,8.548,8.547Zm-17.1-17.094-8.548-8.548.707-.707,8.548,8.548Zm-17.095-17.095-8.548-8.548.707-.707,8.548,8.548Zm-17.1-17.1-8.547-8.547.708-.707,8.546,8.547Zm-17.094-17.095-8.548-8.546.707-.707,8.548,8.546Zm-17.1-17.094-8.548-8.548.707-.707,8.548,8.548Zm-17.095-17.095-8.548-8.548.707-.707,8.548,8.548Zm-17.1-17.1-8.546-8.547.707-.707,8.547,8.547Zm-17.094-17.094-8.548-8.548.707-.707,8.548,8.548Zm-17.1-17.095-8.548-8.548.707-.707,8.548,8.548Zm-17.1-17.1-8.547-8.548.707-.707,8.547,8.548Z" fill="#fff"/>
          </g>
        </g>
        <g id="Group_79" data-name="Group 79" opacity="0.2">
          <g id="Group_78" data-name="Group 78">
            <path id="Path_50" data-name="Path 50" d="M5067.022,3053.524l-8.547-8.547.707-.707,8.547,8.547Zm-17.094-17.094-8.548-8.548.707-.707,8.548,8.548Zm-17.1-17.095-8.547-8.548.707-.707,8.547,8.548Zm-17.1-17.1-8.548-8.547.707-.707,8.548,8.547Zm-17.094-17.094-8.548-8.548.707-.707,8.548,8.548Zm-17.1-17.095L4973,2959.5l.707-.707,8.548,8.548Zm-17.1-17.1-8.547-8.547.707-.707,8.547,8.547Zm-17.1-17.1-8.547-8.547.707-.708,8.547,8.548Zm-17.094-17.094-8.548-8.548.707-.707,8.548,8.548Zm-17.1-17.095-8.547-8.548.707-.707,8.547,8.548Zm-17.1-17.1-8.548-8.547.707-.707,8.548,8.547Zm-17.094-17.095-8.548-8.547.707-.707,8.548,8.547Zm-17.1-17.094-8.547-8.548.707-.707,8.547,8.548Zm-17.095-17.1-8.548-8.547.707-.707,8.548,8.547Zm-17.1-17.095-8.547-8.548.707-.707,8.547,8.548ZM4810.6,2797.1l-8.547-8.548.707-.707,8.547,8.548Zm-17.1-17.1-8.547-8.547.707-.707,8.547,8.547Zm-17.095-17.095-8.548-8.548.707-.707,8.548,8.548Zm-17.094-17.095-8.548-8.547.707-.707,8.548,8.547Zm-17.1-17.094-8.547-8.548.707-.707,8.547,8.548Zm-17.095-17.1-8.548-8.547.707-.707,8.548,8.547Zm-17.1-17.095-8.548-8.548.708-.707,8.547,8.548Zm-17.095-17.094-8.547-8.548.707-.707,8.547,8.548Zm-17.1-17.1-8.548-8.547.707-.707,8.548,8.547Zm-17.095-17.1-8.548-8.548.707-.707,8.548,8.548Zm-17.1-17.095-8.546-8.547.707-.707,8.547,8.547Zm-17.094-17.094-8.548-8.548.707-.707,8.548,8.548Zm-17.095-17.1-8.548-8.547.707-.707,8.548,8.547Zm-17.1-17.095-8.547-8.548.707-.707,8.547,8.548Zm-17.094-17.094-8.548-8.548.707-.707,8.548,8.548Zm-17.1-17.1-8.548-8.547.707-.707,8.548,8.547Zm-17.1-17.095-8.547-8.548.707-.707,8.547,8.548Zm-17.1-17.1-8.546-8.547.707-.708,8.546,8.548Zm-17.094-17.095-8.548-8.547.707-.707,8.548,8.547Zm-17.1-17.095-8.548-8.548.707-.707,8.548,8.548Zm-17.1-17.095-8.547-8.548.707-.707,8.547,8.548ZM4451.6,2438.1l-8.548-8.547.707-.707,8.548,8.547Zm-17.1-17.095-8.548-8.547.707-.707,8.548,8.547Zm-17.1-17.095-8.547-8.548.707-.707,8.547,8.548Zm-17.1-17.095-8.547-8.548.707-.707,8.547,8.548Zm-17.094-17.095-8.548-8.547.707-.707,8.548,8.547Zm-17.1-17.1-8.547-8.548.707-.707,8.547,8.548Zm-17.1-17.095-8.548-8.548.707-.707,8.548,8.548Zm-17.094-17.095-8.548-8.547.707-.707,8.548,8.547Zm-17.1-17.095-8.548-8.547.707-.707,8.548,8.547Zm-17.1-17.095-8.547-8.548.707-.707,8.547,8.548Zm-17.1-17.095-8.547-8.548.707-.707,8.547,8.548Zm-17.094-17.095-8.548-8.547.707-.707,8.548,8.547Zm-17.1-17.095-8.547-8.548.707-.707,8.547,8.548Zm-17.095-17.1-8.548-8.548.707-.707,8.548,8.548Zm-17.1-17.095-8.547-8.547.707-.707,8.548,8.547Zm-17.1-17.095-8.547-8.547.707-.707,8.547,8.547Zm-17.095-17.095-8.547-8.548.707-.707,8.547,8.548Zm-17.1-17.095-8.548-8.548.708-.707,8.547,8.548Zm-17.094-17.094-8.548-8.548.707-.707,8.548,8.548Zm-17.1-17.1-8.547-8.547.707-.707,8.547,8.547ZM4109.7,2096.2l-8.548-8.548.707-.707,8.548,8.548Zm-17.1-17.1-8.547-8.547.707-.708,8.547,8.548Z" fill="#fff"/>
          </g>
        </g>
      </g>
    </g>
    <g id="Group_86" data-name="Group 86">
      <g id="Group_83" data-name="Group 83" opacity="0.2">
        <g id="Group_82" data-name="Group 82">
          <path id="Path_51" data-name="Path 51" d="M4518.295,2751.794a85.257,85.257,0,0,1-11.869-1.672l.209-.978a84.18,84.18,0,0,0,11.73,1.652Zm11.989-.007-.07-1a83.624,83.624,0,0,0,11.727-1.663l.211.978A84.9,84.9,0,0,1,4530.284,2751.787Zm-35.381-5.005a85.541,85.541,0,0,1-10.932-4.928l.474-.881a84.723,84.723,0,0,0,10.8,4.872Zm58.759-.024-.346-.938a84.538,84.538,0,0,0,10.788-4.876l.475.881A85.517,85.517,0,0,1,4553.662,2746.758Zm-79.827-11.311a87.819,87.819,0,0,1-9.157-7.733l.695-.719a86.93,86.93,0,0,0,9.054,7.646Zm100.872-.03-.592-.807a87.091,87.091,0,0,0,9.05-7.652l.695.719A88.027,88.027,0,0,1,4574.707,2735.417Zm-118.054-16.6a89.435,89.435,0,0,1-6.751-9.9l.862-.506a88.532,88.532,0,0,0,6.676,9.786Zm135.23-.046-.787-.618a88.817,88.817,0,0,0,6.675-9.8l.863.5A89.724,89.724,0,0,1,4591.883,2718.766ZM4444.532,2698.2a90.26,90.26,0,0,1-3.891-11.337l.964-.261a89.627,89.627,0,0,0,3.849,11.212Zm159.465-.071-.922-.387a88.986,88.986,0,0,0,3.842-11.222l.965.259A89.838,89.838,0,0,1,4604,2698.127Zm-165.708-23.018a92.391,92.391,0,0,1-.788-11.958h1a91.35,91.35,0,0,0,.78,11.828Zm171.934-.087-.993-.13a91.238,91.238,0,0,0,.77-11.829v-.174h1v.166A92.644,92.644,0,0,1,4610.223,2675.022Zm-170.965-23.7-.992-.129a90.42,90.42,0,0,1,2.329-11.756l.967.259A89.6,89.6,0,0,0,4439.258,2651.321Zm169.95-.258a89.912,89.912,0,0,0-2.337-11.621l.965-.261a91.038,91.038,0,0,1,2.364,11.749Zm-163.817-22.6-.922-.385a89.652,89.652,0,0,1,5.353-10.733l.864.5A88.541,88.541,0,0,0,4445.391,2628.467Zm157.622-.232a89.214,89.214,0,0,0-5.322-10.591l.862-.508a90.358,90.358,0,0,1,5.382,10.711Zm-145.662-20.187-.788-.617a88.787,88.787,0,0,1,8.013-8.919l.7.717A87.631,87.631,0,0,0,4457.351,2608.048Zm133.655-.183a87.94,87.94,0,0,0-7.942-8.794l.7-.718a88.9,88.9,0,0,1,8.031,8.893Zm-116.693-16.3-.591-.8a86.581,86.581,0,0,1,10.12-6.418l.476.879A86.047,86.047,0,0,0,4474.313,2591.567Zm99.692-.133a86.046,86.046,0,0,0-10.026-6.32l.473-.881a86.947,86.947,0,0,1,10.143,6.394Zm-78.9-11.1-.348-.938a84.9,84.9,0,0,1,11.509-3.358l.211.977A84.026,84.026,0,0,0,4495.1,2580.337Zm58.067-.082a83.653,83.653,0,0,0-11.39-3.288l.209-.979a84.871,84.871,0,0,1,11.527,3.327Zm-34.969-4.912-.07-1a86.568,86.568,0,0,1,11.987-.018l-.068,1A85.178,85.178,0,0,0,4518.2,2575.343Z" fill="#fff"/>
        </g>
      </g>
      <g id="Group_85" data-name="Group 85" opacity="0.2">
        <g id="Group_84" data-name="Group 84">
          <path id="Path_52" data-name="Path 52" d="M4524.25,2715a50.137,50.137,0,0,1-6.13-.377l.123-.992a49.433,49.433,0,0,0,12.112-.013l.125.992A50.3,50.3,0,0,1,4524.25,2715Zm-18.117-3.419a50.208,50.208,0,0,1-10.861-5.909l.582-.813a49.173,49.173,0,0,0,10.644,5.79Zm36.325-.036-.367-.93a49.168,49.168,0,0,0,10.628-5.808l.584.812A50.149,50.149,0,0,1,4542.458,2711.545Zm-56.293-14.23a52.04,52.04,0,0,1-6.866-10.271l.89-.453a51.191,51.191,0,0,0,6.736,10.074Zm76.231-.071-.76-.648a51.164,51.164,0,0,0,6.72-10.094l.893.451A52.148,52.148,0,0,1,4562.4,2697.244Zm-87.363-21.8a53.441,53.441,0,0,1-1.447-12.273l1,0a52.4,52.4,0,0,0,1.42,12.043Zm98.458-.1-.972-.231a52.468,52.468,0,0,0,1.4-12.046v-.209h1v.2A53.378,53.378,0,0,1,4573.491,2675.34Zm-97.532-24.222-.975-.228a52.494,52.494,0,0,1,4.221-11.622l.893.449A51.408,51.408,0,0,0,4475.959,2651.118Zm96.512-.3a51.567,51.567,0,0,0-4.205-11.371l.89-.455a52.494,52.494,0,0,1,4.287,11.592Zm-85.673-21.207-.762-.648a51.541,51.541,0,0,1,9.076-8.392l.586.811A50.5,50.5,0,0,0,4486.8,2629.609Zm74.711-.225a50.444,50.444,0,0,0-8.947-8.176l.58-.814a51.386,51.386,0,0,1,9.125,8.337Zm-55.2-13.834-.369-.93a49.46,49.46,0,0,1,11.97-3.091l.127.992A48.389,48.389,0,0,0,4506.313,2615.55Zm35.592-.111a48.485,48.485,0,0,0-11.751-2.956l.121-.992a49.41,49.41,0,0,1,11.994,3.017Z" fill="#fff"/>
        </g>
      </g>
    </g>
  </g>
</svg>
