<svg id="Contact" xmlns="http://www.w3.org/2000/svg" width="32" height="32" viewBox="0 0 32 32">
  <rect id="wrap" width="32" height="32" fill="#099494" opacity="0"/>
  <path id="Path_37" data-name="Path 37" d="M205.46,13.477a3.37,3.37,0,0,0-.941-.994,3.287,3.287,0,0,0,.3-.76,3.35,3.35,0,0,0-2.055-3.939,3.372,3.372,0,0,0-5.17-3.414l-.009-.019a3.328,3.328,0,0,0-2.089-1.509,3.367,3.367,0,0,0-2.886.646,1.25,1.25,0,0,0-.2.135l-.088.088-.023.017-.245.245-6.562,6.56-1.822-3.018-.005-.021c-.033-.066-.087-.137-.13-.205L183.47,7.2c-.005-.009-.015-.02-.021-.029-.019-.025-.028-.048-.048-.074s-.017-.013-.025-.024-.035-.05-.055-.072a1.02,1.02,0,0,0-.1-.125,3.455,3.455,0,0,0-1.73-1.008A3.4,3.4,0,0,0,177.4,8.383a3.063,3.063,0,0,0-.055,1.238l.5,5.452c0,.039,0,.11.005.149l.2,2.356a1.338,1.338,0,0,0,.024.163l.016.088a12.187,12.187,0,0,0,20.552,6.152l6.327-6.327a3.4,3.4,0,0,0,.49-4.177Zm-2.2,1.955a.687.687,0,0,1-.185.327l-6.329,6.327a9.445,9.445,0,0,1-6.725,2.784,9.558,9.558,0,0,1-2.244-.276,8.752,8.752,0,0,0,1.367-.816,1.34,1.34,0,1,0-1.608-2.145,6.157,6.157,0,0,1-1.423.792,5.722,5.722,0,0,1-2.081.323c-.255-.208-.5-.427-.737-.662a9.439,9.439,0,0,1-2.553-4.667.587.587,0,0,0-.031-.182l-.19-2.131c0-.04,0-.113-.005-.153l-.52-5.7A.628.628,0,0,1,180.008,9a.713.713,0,0,1,.867-.524.763.763,0,0,1,.359.2l2.839,4.7a1.34,1.34,0,0,0,2.1.256l7.772-7.772.233-.233.015-.009.011-.011a.7.7,0,0,1,.669-.167.679.679,0,0,1,.433.31.752.752,0,0,1,.118.415c-.016.244-.035.255-.062.3l-3.673,3.673a1.34,1.34,0,1,0,1.895,1.895l4.185-4.185L198.921,6.7l0,0h0a.7.7,0,0,1,.682-.176.679.679,0,0,1,.433.31.7.7,0,0,1,.08.549.659.659,0,0,1-.182.322l-.821.823-4.53,4.53a1.34,1.34,0,1,0,1.895,1.895l4.53-4.53a.7.7,0,0,1,.682-.174.679.679,0,0,1,.433.31.707.707,0,0,1,.08.549.693.693,0,0,1-.185.326l-.883.884h0l-1.249,1.247v0l-2.395,2.4a1.34,1.34,0,1,0,1.895,1.895l2.395-2.4h0l.9-.9.066.013a.686.686,0,0,1,.433.311A.7.7,0,0,1,203.26,15.432Z" transform="translate(-175.636 0.854)" fill="#099494"/>
</svg>
