<svg xmlns="http://www.w3.org/2000/svg" xmlns:xlink="http://www.w3.org/1999/xlink" width="47.277" height="47.282" viewBox="0 0 47.277 47.282">
  <defs>
    <linearGradient id="linear-gradient" y1="0.5" x2="0.971" y2="0.5" gradientUnits="objectBoundingBox">
      <stop offset="0" stop-color="#262f2d" stop-opacity="0"/>
      <stop offset="1" stop-color="#262f2d"/>
    </linearGradient>
    <linearGradient id="linear-gradient-2" x1="0.5" x2="0.5" y2="0.756" gradientUnits="objectBoundingBox">
      <stop offset="0" stop-color="#262f2d"/>
      <stop offset="1" stop-color="#262f2d" stop-opacity="0"/>
    </linearGradient>
  </defs>
  <g id="Logo" transform="translate(-5388.5 -2328.5)">
    <g id="Group_23" data-name="Group 23" transform="translate(5396.362 2328.556)">
      <g id="Group_19" data-name="Group 19" transform="translate(0.017 0)">
        <path id="Path_21" data-name="Path 21" d="M5496.44,2376.22h-27.856a9.582,9.582,0,0,1-9.572-9.128c-.008-.141-.012-.286-.012-.456v-35.68a1.956,1.956,0,0,1,3.912,0v35.68c0,.1,0,.175.005.243v.024a5.629,5.629,0,0,0,1.083,3.077,5.7,5.7,0,0,0,4.582,2.328h27.856a1.956,1.956,0,1,1,0,3.912Z" transform="translate(-5459 -2329)" fill="#099494"/>
      </g>
      <g id="Group_22" data-name="Group 22" transform="translate(0 0)">
        <path id="Path_22" data-name="Path 22" d="M5582.941,2716.733a1.948,1.948,0,0,1,1.383-.571l21.7.044a1.956,1.956,0,0,1,0,3.912l-21.7-.044a1.956,1.956,0,0,1-1.379-3.34Z" transform="translate(-5568.562 -2672.892)" fill="url(#linear-gradient)"/>
        <path id="Path_23" data-name="Path 23" d="M5459.5,2354.045a1.948,1.948,0,0,1-.579-1.38l-.079-21.7a1.956,1.956,0,0,1,3.912-.018l.078,21.7a1.956,1.956,0,0,1-3.332,1.4Z" transform="translate(-5458.846 -2329)" fill="url(#linear-gradient-2)"/>
      </g>
    </g>
    <path id="Path_24" data-name="Path 24" d="M5435.2,2372.437l-7.7-7.7c.252-.3.5-.6.731-.917a22.081,22.081,0,0,0-7.63-32.913,21.833,21.833,0,0,0-10.029-2.405h-20.117a1.956,1.956,0,0,0,0,3.912h20.117a17.963,17.963,0,0,1,8.25,1.977,18.34,18.34,0,0,1,6.282,5.289,17.942,17.942,0,0,1,3.266,7.263,18.3,18.3,0,0,1,0,7.268,17.938,17.938,0,0,1-3.266,7.261,18.314,18.314,0,0,1-1.688,1.946c-.024.025-.046.051-.069.076s-.045.047-.065.073-.025.035-.039.052a1.955,1.955,0,0,0,.039,2.416l.021.022c.036.043.073.085.114.126l9.021,9.021a1.956,1.956,0,0,0,2.766-2.766Z" fill="#099494"/>
  </g>
</svg>
