<svg xmlns="http://www.w3.org/2000/svg" width="32" height="32" viewBox="0 0 32 32">
  <g id="Profile" transform="translate(0 0)">
    <g id="Group_40" data-name="Group 40" transform="translate(-0.033)" opacity="0">
      <rect id="Rectangle_5" data-name="Rectangle 5" width="32" height="32" transform="translate(0.032 0)" fill="#099494"/>
    </g>
    <path id="Path_38" data-name="Path 38" d="M235.342,2.016a13.326,13.326,0,1,0,13.326,13.326A13.34,13.34,0,0,0,235.342,2.016Zm0,2.669a10.646,10.646,0,0,1,8.782,16.678,13.37,13.37,0,0,0-4.667-2.673,5.28,5.28,0,0,0,1.217-3.349,5.332,5.332,0,1,0-10.664,0,5.28,5.28,0,0,0,1.217,3.349,13.37,13.37,0,0,0-4.667,2.673,10.646,10.646,0,0,1,8.782-16.678Zm0,13.318A2.662,2.662,0,1,1,238,15.342,2.664,2.664,0,0,1,235.342,18Zm-7,5.351a10.576,10.576,0,0,1,14.009,0,10.6,10.6,0,0,1-14.009,0Z" transform="translate(-219.358 0.675)" fill="#099494"/>
  </g>
</svg>
